<?xml version="1.0" encoding="utf-8"?>
<!-- Generator: Adobe Illustrator 24.0.1, SVG Export Plug-In . SVG Version: 6.00 Build 0)  -->
<svg version="1.1" xmlns="http://www.w3.org/2000/svg" xmlns:xlink="http://www.w3.org/1999/xlink" x="0px" y="0px"
	 viewBox="0 0 50 50" style="enable-background:new 0 0 50 50;" xml:space="preserve">
<style type="text/css">
	.st0{fill:#0052A5;}
	.st1{fill:none;stroke:#0052A5;stroke-width:1.68;stroke-miterlimit:10;}
</style>
<g id="Warstwa_3">
	<g>
		<path class="st0" d="M31.6,35.6C31.6,35.6,31.6,35.6,31.6,35.6l2.1-1.5c0,0,0,0,0,0l-2.5-13.2c0,0,0,0,0,0c0,0,0.7-0.7,3.7-3.7
			c2.8-2.8,1.7-4.4,1.7-4.4c0,0,0,0,0,0c0,0,0,0,0,0c0,0,0,0,0,0c0,0,0,0,0,0c0,0,0,0,0,0c0,0-1.6-1.1-4.4,1.7c-3,3-3.7,3.7-3.7,3.7
			c0,0,0,0,0,0l-13.2-2.5c0,0,0,0,0,0l-1.6,2.1c0,0,0,0,0,0l9.9,5.1c0,0,0,0,0,0L19,28.1c0,0,0,0,0,0l-3.4-0.9c0,0,0,0,0,0l-1,1.5
			c0,0,0,0,0,0l3.5,2.6c0,0,0,0,0,0l2.6,3.5c0,0,0,0,0,0l1.5-1c0,0,0,0,0,0l-0.9-3.4c0,0,0,0,0,0l5.2-4.6c0,0,0,0,0,0L31.6,35.6z"/>
	</g>
</g>
<g id="Warstwa_2">
	<path id="Shape" class="st1" d="M26.6,5.3c-1.2,0.8-3.6,1.3-4.3,0.5c-0.7-0.7-0.9-2.1-1-2.8c-0.1-0.7,0.3-0.8-3.5-0.3
		S13.5,3.7,12,4.6c-1.6,0.9-3.6,1.3-6.6,2.8C3,8.7,2.1,9.2,2,10.6c-0.1,1.5,0.8,3.3,0,4.4s-0.9,3,0,3.4s1,1.2,0.9,2.4
		C2.8,21.9,3,24.8,3,25.7s1.5,3.3,1.2,4.1c-0.3,0.8-0.4,1-0.5,1.3c-0.1,0.3,5.5,2.8,6,3.3c0.5,0.5,1.6,1.6,2.3,1.9s0.8,0.6,2,0.6
		s2.4,0.3,4.4,2.5c2.1,2.2,2.9,1.6,3.6,2.2c0.6,0.6,0.8,2.3,1.9,2.4c1.1,0.1,1.4-0.2,2.1,0.6c0.8,0.8,2.3,0.7,3.9,0.7
		s2.2-0.7,3.1-0.8c0.9-0.1,1.6-0.7,4,0.4c2.4,1.2,3.4,1.6,4.9,1.7c1.6,0.1,0.7-0.5,0.5-1.7c-0.3-1.6,0.1-3.2,1-4.6
		c1-1.4,2.6-3.6,3.3-4.1s2.3-1.1,1.6-2.9c-0.6-1.8-3.4-5.1-3.3-7.5c0.1-2.4,0.7-3,0.1-3.8c-0.5-0.8,0.1-1.4,0.7-3.5
		c0.6-2.1,0.1-4-0.3-6.4c-0.4-2.4-0.3-3.9-1.6-4.8c-1.4-0.9-0.8-1.5-1.9-1.6c-1.1-0.2-2.9,1.3-6.4,0.6c-3.6-0.6-7.4-0.5-7.9-0.9
		S26.6,5.3,26.6,5.3z"/>
</g>
</svg>
