<?xml version="1.0" encoding="utf-8"?>
<!-- Generator: Adobe Illustrator 24.0.1, SVG Export Plug-In . SVG Version: 6.00 Build 0)  -->
<svg version="1.1" id="rodzice" xmlns="http://www.w3.org/2000/svg" xmlns:xlink="http://www.w3.org/1999/xlink" x="0px" y="0px"
	 viewBox="0 0 50 50" style="enable-background:new 0 0 50 50;" xml:space="preserve">
<style type="text/css">
	.st0{fill:none;stroke:#0052A5;stroke-width:1.68;stroke-miterlimit:10;}
	.st1{fill:#0052A5;}
</style>
<circle class="st0" cx="34.5" cy="12.6" r="7.6"/>
<circle class="st0" cx="15.8" cy="9.8" r="8.1"/>
<path class="st0" d="M15.1,41.6c-6.9-0.1-13.6-2.1-13.6-6c0-7.9,6.5-14.4,14.4-14.4c3.9,0,7.5,1.6,10.1,4.2l0.2,0.1
	c2.3-1.8,5.1-2.8,8.2-2.8c7.4,0,13.4,6,13.4,13.4c0,3.4-5.7,5.2-11.7,5.5"/>
<path class="st1" d="M25.6,28c-5.5,0-10,4.5-10,10s4.5,10,10,10s10-4.5,10-10S31.1,28,25.6,28z M25.9,31.5c1,0,1.8,0.8,1.8,1.8
	s-0.8,1.8-1.8,1.8c-1,0-1.8-0.8-1.8-1.8C24,32.4,24.8,31.5,25.9,31.5z M27.6,43.8c0.2,0,0.4,0.2,0.4,0.4s-0.2,0.4-0.4,0.4h-3.5
	c-0.2,0-0.4-0.2-0.4-0.4s0.2-0.4,0.4-0.4h0.4v-6.8h-0.4c-0.2,0-0.4-0.2-0.4-0.4s0.2-0.4,0.4-0.4h3.5c0.2,0,0.4,0.2,0.4,0.4
	c0,0.2-0.2,0.4-0.4,0.4h-0.4v6.8H27.6z"/>
</svg>
