<?xml version="1.0" encoding="utf-8"?>
<!-- Generator: Adobe Illustrator 24.0.1, SVG Export Plug-In . SVG Version: 6.00 Build 0)  -->
<svg version="1.1" id="biznes" xmlns="http://www.w3.org/2000/svg" xmlns:xlink="http://www.w3.org/1999/xlink" x="0px" y="0px"
	 viewBox="0 0 50 50" style="enable-background:new 0 0 50 50;" xml:space="preserve">
<style type="text/css">
	.st0{fill:none;stroke:#0052A5;stroke-width:1.68;stroke-miterlimit:10;}
	.st1{fill:#0052A5;}
</style>
<g>
	<path class="st0" d="M2.2,6.8h30.9c0.6,0,1.2,0.5,1.2,1.2v11.1c0,0.6-0.5,1.2-1.2,1.2H2.2c-0.6,0-1.2-0.5-1.2-1.2V8
		C1.1,7.1,1.6,6.8,2.2,6.8z"/>
	<path class="st0" d="M2.2,20.4v9.2c0,0.6,0.5,1.2,1.2,1.2h28.8c0.6,0,1.2-0.5,1.2-1.2v-9.2H2.2z"/>
	<line class="st0" x1="15.8" y1="23.2" x2="19.6" y2="23.2"/>
	<path class="st0" d="M17.8,1.3c-3.1,0-5.4,2.5-5.4,5.4h11.1C23.2,3.8,20.7,1.3,17.8,1.3z"/>
	<g id="Warstwa_2_1_">
		<path class="st1" d="M37.1,15.1c-6.6,0-11.9,5.3-11.9,11.9s5.3,11.9,11.9,11.9S49,33.6,49,27S43.7,15.1,37.1,15.1z M37.4,19.3
			c1.2,0,2.2,1,2.2,2.2c0,1.2-1,2.2-2.2,2.2s-2.2-1-2.2-2.2C35.3,20.3,36.2,19.3,37.4,19.3z M39.5,33.8c0.2,0,0.4,0.2,0.4,0.4
			c0,0.2-0.2,0.4-0.4,0.4h-4.2c-0.2,0-0.4-0.2-0.4-0.4c0-0.2,0.2-0.4,0.4-0.4h0.4v-8.1h-0.4c-0.2,0-0.4-0.2-0.4-0.4
			c0-0.2,0.2-0.4,0.4-0.4h4.2c0.2,0,0.4,0.2,0.4,0.4c0,0.2-0.2,0.4-0.4,0.4h-0.4v8.1H39.5z"/>
	</g>
</g>
</svg>
