<?xml version="1.0" encoding="utf-8"?>
<!-- Generator: Adobe Illustrator 24.0.1, SVG Export Plug-In . SVG Version: 6.00 Build 0)  -->
<svg version="1.1" id="Warstwa_1" xmlns="http://www.w3.org/2000/svg" xmlns:xlink="http://www.w3.org/1999/xlink" x="0px" y="0px"
	 viewBox="0 0 348 187" style="enable-background:new 0 0 348 187;" xml:space="preserve">
<style type="text/css">
	.st0{enable-background:new    ;}
	.st1{fill:#0052A5;}
	.st2{fill:none;stroke:#0052A5;stroke-width:1.68;stroke-linecap:round;stroke-linejoin:round;stroke-miterlimit:10;}
</style>
<g>
	<polyline class="st2" points="201.5,65.8 201.5,55.4 174.4,35.8 147.3,55.4 147.3,65.8 	"/>
	<polyline class="st2" points="147.3,79.5 147.3,95.8 201.5,95.8 201.5,79.5 	"/>
	<polyline class="st2" points="201.3,72.5 223.2,72.5 223.2,42.4 203,27.8 183.6,42 	"/>
	<polyline class="st2" points="165,42.4 145,27.8 124.8,42.4 124.8,72.5 147.7,72.5 	"/>
	<path id="Shape_3_" class="st2" d="M186.9,72.2c4.2-4.6,3.1-8.3,0-11.5c-3.1-3.1-8.3-2.7-11.5,0.2c-0.4,0.4-0.6,0.8-1,1.3
		c-0.2-0.4-0.6-0.8-1-1.3c-3.1-3.1-8.1-3.1-11.3,0c-3.1,3.1-3.1,8.1,0,11.3l12.1,12.1l1.7-1.3L186.9,72.2z"/>
</g>
</svg>
