<?xml version="1.0" encoding="utf-8"?>
<!-- Generator: Adobe Illustrator 24.0.1, SVG Export Plug-In . SVG Version: 6.00 Build 0)  -->
<svg version="1.1" id="Warstwa_1" xmlns="http://www.w3.org/2000/svg" xmlns:xlink="http://www.w3.org/1999/xlink" x="0px" y="0px"
	 viewBox="0 0 348 187" style="enable-background:new 0 0 348 187;" xml:space="preserve">
<style type="text/css">
	.st0{enable-background:new    ;}
	.st1{fill:#0052A5;}
	.st2{fill:none;stroke:#0052A5;stroke-width:1.68;stroke-miterlimit:10;}
</style>
<g>
	<polyline class="st2" points="180.6,30.6 211.9,30.6 211.9,97.4 136.1,97.4 136.1,30.6 166.4,30.6 	"/>
	<rect x="145.4" y="40.1" class="st2" width="8" height="17.4"/>
	<rect x="145.4" y="69.4" class="st2" width="8" height="17.4"/>
	<rect x="194.7" y="69.4" class="st2" width="8" height="17.4"/>
	<rect x="165.4" y="70.7" class="st2" width="17.4" height="26.7"/>
	<rect x="194.7" y="40.1" class="st2" width="8" height="17.4"/>
	<line class="st2" x1="174.1" y1="70.7" x2="174.1" y2="97.4"/>
	<polygon class="st2" points="158.9,36.6 158.9,46.3 168.5,46.3 168.5,56.1 178.3,56.1 178.3,46.3 188,46.3 188,36.6 178.3,36.6 
		178.3,26.8 168.5,26.8 168.5,36.6 	"/>
</g>
</svg>
