<?xml version="1.0" encoding="utf-8"?>
<!-- Generator: Adobe Illustrator 23.1.1, SVG Export Plug-In . SVG Version: 6.00 Build 0)  -->
<svg version="1.1" id="Warstwa_1" xmlns="http://www.w3.org/2000/svg" xmlns:xlink="http://www.w3.org/1999/xlink" x="0px" y="0px"
	 viewBox="0 0 54 54" style="enable-background:new 0 0 54 54;" xml:space="preserve">
<style type="text/css">
	.st0{fill:none;stroke:#0052A5;stroke-width:1.68;}
</style>
<title>telefon</title>
<desc>Created with Sketch.</desc>
<g id="Robotix">
	<g id="telefon">
		<g transform="translate(4.200000, 4.200000)">
			<path class="st0" d="M41.9,45.2C18.8,45.2,0,26.4,0,3.3C0,1.5,1.5,0,3.3,0h8.5C13.6,0,15,1.5,15,3.3c0,2.9,0.4,5.7,1.3,8.4
				c0.4,1.2,0.1,2.5-0.8,3.4l-4.9,4.9c3.4,6.3,8.5,11.4,14.8,14.8l4.9-4.9c0.9-0.9,2.2-1.2,3.4-0.8c2.7,0.9,5.5,1.3,8.4,1.3
				c1.8,0,3.3,1.5,3.3,3.3V42c0,0.9-0.4,1.7-1,2.3S42.8,45.2,41.9,45.2z"/>
		</g>
	</g>
</g>
</svg>
