<?xml version="1.0" encoding="utf-8"?>
<!-- Generator: Adobe Illustrator 24.0.1, SVG Export Plug-In . SVG Version: 6.00 Build 0)  -->
<svg version="1.1" id="Warstwa_1" xmlns="http://www.w3.org/2000/svg" xmlns:xlink="http://www.w3.org/1999/xlink" x="0px" y="0px"
	 viewBox="0 0 348 187" style="enable-background:new 0 0 348 187;" xml:space="preserve">
<style type="text/css">
	.st0{enable-background:new    ;}
	.st1{fill:#0052A5;}
	.st2{fill:none;stroke:#0052A5;stroke-width:1.68;stroke-linecap:round;stroke-miterlimit:10;}
</style>

<g>
	<g>
		<path class="st2" d="M176.7,32.4c-1.9,1.4-5.8,2-7,0.9c-1.2-1.2-1.5-3.4-1.7-4.6s0.5-1.4-5.6-0.5s-7.2,1.5-9.6,2.9
			c-2.7,1.5-5.8,2-10.8,4.6c-3.8,2.2-5.3,2.9-5.5,5.3c-0.2,2.4,1.4,5.3,0,7.2c-1.4,1.7-1.5,5,0,5.5s1.7,1.9,1.5,3.9
			c-0.2,1.7,0.2,6.5,0.2,7.9c0,1.4,2.4,5.3,1.9,6.7c-0.5,1.4-0.5,1.7-0.7,2c-0.2,0.5,8.9,4.6,9.7,5.3c0.9,0.7,2.6,2.7,3.8,3.1
			c1.2,0.5,1.4,1,3.2,1c1.9,0,3.9,0.5,7.2,3.9c3.4,3.6,4.8,2.7,5.8,3.6c1,1,1.4,3.8,3.1,3.9c1.7,0.2,2.2-0.3,3.4,1
			c1.4,1.4,3.8,1.2,6.3,1.2c2.7,0,3.6-1.2,5.1-1.4s2.7-1.2,6.5,0.5c3.9,1.9,5.5,2.7,8,2.7c2.6,0.2,1.2-0.9,0.9-2.7
			c-0.5-2.6,0.2-5.1,1.7-7.3c1.7-2.2,4.1-5.8,5.3-6.7c1.2-0.9,3.8-1.7,2.7-4.8c-1-2.9-5.5-8.4-5.3-12.1c0.2-3.8,1.2-5,0.2-6.1
			c-0.9-1.4,0.2-2.2,1.2-5.6c1-3.4,0.2-6.5-0.5-10.4c-0.5-3.9-0.5-6.3-2.7-7.9c-2.2-1.5-1.4-2.4-3.1-2.7c-1.7-0.3-4.8,2-10.4,1
			c-5.8-1-12-0.7-13-1.5C177.8,31.5,176.7,32.4,176.7,32.4z"/>
	</g>
	<circle class="st1" cx="174.2" cy="74.4" r="5.1"/>
	<circle class="st1" cx="152.8" cy="49.6" r="4.3"/>
	<circle class="st1" cx="184.4" cy="47.1" r="3.4"/>
	<circle class="st1" cx="191.2" cy="81.2" r="3.4"/>
	<circle class="st1" cx="175.9" cy="57.3" r="3.4"/>
	<circle class="st1" cx="194.7" cy="59" r="3.4"/>
	<circle class="st1" cx="157.1" cy="69.3" r="3.4"/>
</g>
</svg>
