<?xml version="1.0" encoding="utf-8"?>
<!-- Generator: Adobe Illustrator 23.1.1, SVG Export Plug-In . SVG Version: 6.00 Build 0)  -->
<svg version="1.1" id="Warstwa_1" xmlns="http://www.w3.org/2000/svg" xmlns:xlink="http://www.w3.org/1999/xlink" x="0px" y="0px"
	 viewBox="0 0 50 50" style="enable-background:new 0 0 50 50;" xml:space="preserve">
<style type="text/css">
	.st0{fill:#0052A5;}
</style>
<g>
	<path class="st0" d="M46.4,21.3c-0.5,0-0.9,0.4-0.9,0.9v2.5h-3.1c-0.3-4.1-2-7.8-4.6-10.6l2.4-2.4l1.8,1.8c0.2,0.2,0.4,0.3,0.6,0.3
		c0.2,0,0.5-0.1,0.6-0.3c0.4-0.4,0.4-0.9,0-1.3l-4.9-4.9C37.9,7,37.4,7,37,7.4c-0.4,0.4-0.4,0.9,0,1.3l1.8,1.8l-2.5,2.5
		c-2.7-2.6-6.5-4.2-10.6-4.5V4.8h2.5c0.5,0,0.9-0.4,0.9-0.9S28.9,3,28.4,3h-6.9c-0.5,0-0.9,0.4-0.9,0.9s0.4,0.9,0.9,0.9h2.6v3.6
		c-4.1,0.3-7.7,1.9-10.6,4.5l-2.8-2.8l1.7-1.7c0.4-0.4,0.4-0.9,0-1.3c-0.4-0.4-0.9-0.4-1.3,0L6.2,12c-0.4,0.4-0.4,0.9,0,1.3
		c0.2,0.2,0.4,0.3,0.6,0.3c0.2,0,0.5-0.1,0.6-0.3l1.9-2l2.8,2.8c-2.6,2.8-4.3,6.5-4.5,10.6H3.8v-2.5c0-0.5-0.4-0.9-0.9-0.9
		S2,21.7,2,22.2v6.9C2,29.6,2.4,30,2.9,30s0.9-0.4,0.9-0.9v-2.6h3.8c0.2,4.2,1.7,7.9,4.4,10.8l-2.5,2.5L7.7,38c-0.4-0.4-1-0.4-1.3,0
		c-0.4,0.4-0.4,0.9,0,1.3l4.9,4.9c0.2,0.2,0.4,0.3,0.6,0.3c0.2,0,0.5-0.1,0.6-0.3c0.4-0.4,0.4-0.9,0-1.3l-1.8-1.8l2.5-2.5
		c2.9,2.6,6.6,4.4,10.9,4.6v3.3h-2.6c-0.5,0-0.9,0.4-0.9,0.9c0,0.5,0.4,0.9,0.9,0.9h6.9c0.5,0,0.9-0.4,0.9-0.9
		c0-0.5-0.4-0.9-0.9-0.9h-2.5v-3.3c4.2-0.2,8-1.9,10.9-4.5l2.1,2.1L37,42.7c-0.4,0.4-0.4,0.9,0,1.3c0.2,0.2,0.4,0.3,0.6,0.3
		s0.5-0.1,0.6-0.3l4.9-4.9c0.4-0.4,0.4-0.9,0-1.3s-0.9-0.4-1.3,0l-1.7,1.7l-2.1-2.1c2.6-2.9,4.3-6.7,4.4-10.9h3.1v2.6
		c0,0.5,0.4,0.9,0.9,0.9c0.5,0,0.9-0.4,0.9-0.9v-6.9C47.3,21.8,46.9,21.3,46.4,21.3z M36.3,36.7c-0.1,0-0.1,0.1-0.2,0.1
		C36,36.9,36,36.9,36,36.9c-2.8,2.8-6.7,4.5-11,4.5s-8.2-1.7-11-4.5c0-0.1-0.1-0.2-0.2-0.3c-0.1-0.1-0.2-0.1-0.3-0.2
		c-2.6-2.8-4.3-6.5-4.3-10.6c0-4.3,1.7-8.2,4.5-11c0.1,0,0.1-0.1,0.2-0.2c0.1-0.1,0.1-0.1,0.1-0.2c2.8-2.7,6.6-4.4,10.8-4.4
		c8.6,0,15.6,7,15.6,15.6C40.7,30.1,39,33.9,36.3,36.7z"/>
	<circle class="st0" cx="24.8" cy="25.8" r="3.1"/>
	<path class="st0" d="M20.3,20.6c1.5,0,2.7-1.2,2.7-2.7c0-1.5-1.2-2.7-2.7-2.7c-1.5,0-2.7,1.2-2.7,2.7
		C17.6,19.3,18.8,20.6,20.3,20.6z"/>
	<circle class="st0" cx="29.7" cy="17.8" r="2.7"/>
	<ellipse class="st0" cx="34.3" cy="25.9" rx="2.7" ry="2.7"/>
	<circle class="st0" cx="15.5" cy="25.9" r="2.7"/>
	<path class="st0" d="M20.3,31.5c-1.5,0-2.7,1.2-2.7,2.7s1.2,2.7,2.7,2.7c1.5,0,2.7-1.2,2.7-2.7S21.8,31.5,20.3,31.5z"/>
	<circle class="st0" cx="29.7" cy="34.1" r="2.7"/>
</g>
</svg>
