<?xml version="1.0" encoding="utf-8"?>
<!-- Generator: Adobe Illustrator 23.1.1, SVG Export Plug-In . SVG Version: 6.00 Build 0)  -->
<svg version="1.1" id="Warstwa_1" xmlns="http://www.w3.org/2000/svg" xmlns:xlink="http://www.w3.org/1999/xlink" x="0px" y="0px"
	 viewBox="0 0 50 50" style="enable-background:new 0 0 50 50;" xml:space="preserve">
<style type="text/css">
	.st0{fill:none;stroke:#0052A5;stroke-width:1.68;stroke-linecap:round;stroke-miterlimit:10;}
	.st1{fill:#0052A5;}
</style>
<g>
	<polyline class="st0" points="10,32.3 13.7,28.8 20,28.8 	"/>
	<polyline class="st0" points="29.7,17.5 29.7,6.9 1.8,6.9 1.8,20.8 	"/>
	<polyline class="st0" points="40.8,43.1 37.1,39.5 20.2,39.5 20.2,17.8 48.1,17.8 48.1,31.5 	"/>
</g>
<g>
	<path class="st1" d="M32.3,31.1v-0.7c0-0.6,0.1-1.1,0.4-1.6c0.3-0.4,0.7-0.9,1.4-1.4s1.1-0.9,1.3-1.2c0.2-0.3,0.3-0.6,0.3-1
		s-0.2-0.7-0.5-0.9S34.5,24,34,24c-0.9,0-2,0.3-3.2,0.9l-1-2.1c1.4-0.8,2.9-1.2,4.5-1.2c1.3,0,2.3,0.3,3.1,0.9s1.1,1.5,1.1,2.5
		c0,0.7-0.2,1.3-0.5,1.8s-0.9,1.1-1.8,1.7c-0.6,0.4-1,0.8-1.1,1c-0.2,0.2-0.2,0.5-0.2,0.9V31h-2.6V31.1z M32,34.3
		c0-0.5,0.1-0.9,0.4-1.2c0.3-0.3,0.7-0.4,1.2-0.4s0.9,0.1,1.2,0.4c0.3,0.3,0.4,0.7,0.4,1.2s-0.1,0.9-0.4,1.2
		c-0.3,0.3-0.7,0.4-1.2,0.4s-0.9-0.1-1.2-0.4S32,34.8,32,34.3z"/>
</g>
<line class="st0" x1="7.6" y1="12.4" x2="24" y2="12.4"/>
<line class="st0" x1="7.6" y1="17.8" x2="16.1" y2="17.8"/>
<line class="st0" x1="7.6" y1="23.2" x2="16.1" y2="23.2"/>
</svg>
