<?xml version="1.0" encoding="utf-8"?>
<!-- Generator: Adobe Illustrator 24.0.1, SVG Export Plug-In . SVG Version: 6.00 Build 0)  -->
<svg version="1.1" id="podrozni" xmlns="http://www.w3.org/2000/svg" xmlns:xlink="http://www.w3.org/1999/xlink" x="0px" y="0px"
	 viewBox="0 0 50 50" style="enable-background:new 0 0 50 50;" xml:space="preserve">
<style type="text/css">
	.st0{fill:none;stroke:#0052A5;stroke-width:1.68;stroke-miterlimit:10;}
</style>
<g id="Warstwa_3">
	<path class="st0" d="M25.4,21.3h17.2c1.3,0,2.5,1.2,2.5,2.6V39c0,1.5-1.2,2.6-2.5,2.6H25.4"/>
	<path class="st0" d="M22.5,46H4.1c-1.5,0-2.8-1.2-2.8-2.7V17.5c0-1.5,1.2-2.7,2.8-2.7h18.4c1.5,0,2.8,1.2,2.8,2.7v26
		C25.4,44.8,24.1,46,22.5,46z"/>
	<path class="st0" d="M8.9,47c0,1.1-0.9,1.8-1.7,1.8S5.3,47.9,5.3,47"/>
	<path class="st0" d="M21,47c0,1.1-0.9,1.8-1.7,1.8c-1,0-1.7-0.9-1.7-1.8"/>
	<path class="st0" d="M17.6,3.8h-7.4H9.3C8.6,3.8,8,3.3,8,2.9V1.9C8,1.4,8.6,1,9.3,1h8.3c0.7,0,1.3,0.5,1.3,0.9v0.9
		C18.8,3.4,18.2,3.8,17.6,3.8z"/>
	<line class="st0" x1="11.1" y1="14.5" x2="11.1" y2="4.4"/>
	<line class="st0" x1="16.1" y1="14.5" x2="16.1" y2="4.4"/>
	<line class="st0" x1="6.8" y1="20.6" x2="6.8" y2="41.6"/>
	<line class="st0" x1="14.1" y1="20.6" x2="14.1" y2="41.6"/>
	<line class="st0" x1="19.2" y1="20.6" x2="19.2" y2="41.6"/>
	<path class="st0" d="M34.1,21.3v-1.7c0-1.5-1.2-2.7-2.5-2.7h-4"/>
	<line class="st0" x1="40.6" y1="44.9" x2="37" y2="44.9"/>
	<polyline class="st0" points="39.9,21.3 39.9,41.6 37,41.6 37,21.3 	"/>
</g>
</svg>
